<?xml version="1.0" standalone="no"?>
<!DOCTYPE svg PUBLIC "-//W3C//DTD SVG 20010904//EN"
 "http://www.w3.org/TR/2001/REC-SVG-20010904/DTD/svg10.dtd">
<svg version="1.0" xmlns="http://www.w3.org/2000/svg"
 width="512.000000pt" height="512.000000pt" viewBox="0 0 512.000000 512.000000"
 preserveAspectRatio="xMidYMid meet">
<metadata>
Created by potrace 1.11, written by Peter Selinger 2001-2013
</metadata>
<g transform="translate(0.000000,512.000000) scale(0.100000,-0.100000)"
fill="#000000" stroke="none">
<path d="M1845 5100 c-107 -24 -162 -44 -273 -96 -141 -66 -333 -196 -482
-327 -89 -78 -300 -292 -300 -303 0 -7 15 -17 33 -23 108 -36 191 -177 212
-361 12 -104 14 -135 16 -275 1 -77 4 -147 6 -156 3 -9 22 -26 44 -38 36 -21
51 -41 30 -41 -14 0 -79 -101 -96 -148 -32 -93 -37 -240 -11 -343 31 -120 96
-205 176 -230 19 -6 52 -30 73 -53 138 -151 288 -344 351 -449 40 -69 44 -100
20 -168 l-17 -46 -191 -37 c-232 -45 -232 -45 -276 -52 -19 -3 -84 -17 -144
-30 -348 -77 -475 -153 -565 -339 -64 -131 -88 -265 -98 -528 -6 -193 -2 -215
44 -236 32 -15 2177 -16 2168 -1 -4 6 -12 43 -19 83 l-12 72 -1009 5 c-665 3
-1009 8 -1008 15 0 6 4 60 7 120 4 61 8 117 11 125 2 8 6 31 9 50 37 245 154
372 406 445 96 27 80 23 295 64 88 17 169 32 180 34 11 3 36 7 55 11 195 35
269 56 290 83 11 14 20 38 20 52 0 15 9 54 21 86 29 82 23 152 -19 233 -62
120 -218 327 -372 496 -87 96 -108 116 -122 117 -58 3 -83 27 -108 100 -24 71
-21 203 6 274 15 38 29 55 59 72 21 12 44 32 51 45 8 15 12 87 12 218 0 107 1
207 1 221 2 50 102 145 223 212 52 29 217 82 288 93 25 3 52 8 60 9 8 1 47 6
85 9 209 21 283 33 375 63 65 21 181 77 245 119 19 13 31 6 135 -71 163 -122
192 -156 229 -274 40 -127 43 -154 42 -376 0 -117 4 -201 11 -218 6 -16 27
-36 48 -47 59 -30 92 -123 85 -245 -5 -115 -41 -190 -93 -200 -59 -11 -49 -2
-192 -165 -40 -47 -79 -90 -84 -96 -25 -25 -194 -259 -228 -315 -47 -77 -62
-146 -48 -217 5 -30 12 -58 15 -63 4 -5 9 -30 12 -56 6 -56 25 -90 56 -103 12
-4 63 -17 112 -28 l90 -19 69 69 c37 38 66 71 64 74 -3 2 -54 14 -115 25
l-111 22 -16 56 c-9 32 -16 68 -16 81 0 21 60 133 80 150 3 3 14 18 24 35 11
16 23 34 28 40 4 5 41 52 83 104 134 167 196 232 250 257 62 28 85 48 118 102
56 87 82 265 57 392 -14 73 -63 171 -103 207 l-32 28 2 135 c1 101 6 156 23
220 25 98 35 308 19 405 -45 280 -206 478 -439 540 -30 8 -69 15 -87 15 -25 0
-44 12 -90 56 -133 130 -271 209 -418 240 -71 15 -251 11 -330 -6z"/>
<path d="M3535 1985 c-288 -43 -528 -221 -654 -485 -55 -115 -81 -222 -85
-347 -20 -671 690 -1111 1281 -793 l72 38 43 -47 c24 -26 81 -90 128 -141 47
-52 110 -120 140 -152 l55 -58 61 58 c33 31 90 85 127 119 l67 61 -57 63 c-32
35 -65 70 -73 79 -12 12 -140 153 -205 224 -39 43 -39 43 -2 114 93 177 124
380 86 572 -89 460 -522 765 -984 695z m304 -275 c105 -34 180 -80 256 -156
161 -160 219 -397 151 -611 -43 -135 -126 -245 -243 -323 -137 -91 -288 -122
-451 -92 -403 73 -616 520 -424 887 64 122 211 248 335 287 126 40 267 43 376
8z"/>
</g>
</svg>
